<?xml version="1.0" encoding="utf-8"?>
<!-- Generator: Adobe Illustrator 22.0.1, SVG Export Plug-In . SVG Version: 6.00 Build 0)  -->
<svg version="1.1" id="Capa_1" xmlns="http://www.w3.org/2000/svg" xmlns:xlink="http://www.w3.org/1999/xlink" x="0px" y="0px"
	 width="32px" height="32px" viewBox="0 0 32 32" style="enable-background:new 0 0 32 32;" xml:space="preserve">
<style type="text/css">
	.st0{fill:#999999;}
</style>
<title>kasa-icon-phone</title>
<g id="Capa_2_1_">
	<g id="Capa_2-2">
		<path class="st0" d="M22.9,20.1c-0.5-0.3-1.1-0.3-1.6,0l-2.6,1.5c-0.6,0.3-1.3,0.3-1.8-0.1c-1.2-1-2.4-2-3.4-3.1
			c-1.1-1.1-2.1-2.3-3.1-3.5c-0.4-0.5-0.4-1.1-0.1-1.7l1.5-2.5c0.3-0.5,0.3-1.1,0-1.6L8.2,2.8C7.9,2.2,7.2,1.9,6.5,2
			C5.6,2.3,4.7,2.8,4.1,3.5c-2.8,2.8-4.3,7.6,6.3,18.1s15.3,9.1,18.1,6.3c0.7-0.6,1.2-1.5,1.5-2.4c0.2-0.7-0.1-1.4-0.7-1.7
			L22.9,20.1z"/>
	</g>
</g>
</svg>
