<?xml version="1.0" encoding="utf-8"?>
<!-- Generator: Adobe Illustrator 22.0.1, SVG Export Plug-In . SVG Version: 6.00 Build 0)  -->
<svg version="1.1" id="Capa_1" xmlns="http://www.w3.org/2000/svg" xmlns:xlink="http://www.w3.org/1999/xlink" x="0px" y="0px"
	 viewBox="0 0 223.5 30" style="enable-background:new 0 0 223.5 30;" xml:space="preserve">
<style type="text/css">
	.st0{fill:#FFD806;}
	.st1{fill:#474F58;}
	.st2{fill:#FFFFFF;}
</style>
<g>
	<g>
		<circle class="st0" cx="15" cy="15" r="15"/>
		<path class="st1" d="M15,0H0v15C0,6.7,6.7,0,15,0z"/>
		<path class="st1" d="M15,30h15V15C30,23.3,23.3,30,15,30z"/>
		<path class="st1" d="M5.2,8.8l12,4.4c0,0,7.2-2.7,2.9-4.4C18.4,8.1,5.2,8.8,5.2,8.8z"/>
		<path class="st2" d="M20.1,8.8L20.1,8.8l7.1-2.6c-0.8-1.1-1.8-2.1-2.9-3c-20,2.3-19,5.7-19,5.7l0,0l0,0C5.2,8.8,18.4,8.1,20.1,8.8
			z"/>
		<path class="st2" d="M29.8,12.3l-9.7-3.5c4.3,1.7-2.9,4.4-2.9,4.4l0,0c0,0-8.1,2.7-17.1,3.5c0.7,6.5,5.6,11.7,11.9,13
			c0,0,12.3-6.5,17.9-13.1C30,16.1,30,15.5,30,15C30,14.1,29.9,13.2,29.8,12.3z"/>
		<path class="st1" d="M26.6,11.9c0.3,0.7-0.5,1.6-0.5,1.6l-0.9-0.2c0,0,0.8-1,0.6-1.6L26.6,11.9z"/>
		<path class="st1" d="M23.8,14.6l1,0.2c-0.6,0.5-1.5,1.2-1.5,1.2l-1.1-0.2L23.8,14.6z"/>
		<polygon class="st1" points="19.7,17 20.8,17.3 18.2,18.3 17,18.1 		"/>
		<polygon class="st1" points="13.5,19.3 14.8,19.5 11.9,20.5 10.6,20.3 		"/>
		<polygon class="st1" points="6.8,21.4 8.2,21.7 4.9,22.7 3.7,22.3 		"/>
		<path class="st1" d="M17.1,6.7L17.6,7c0,0-0.9,0.4-1.6,0.7l-0.6-0.3C16,7.1,17.1,6.7,17.1,6.7z"/>
		<path class="st1" d="M19.1,6l0.5,0.3c0.8-0.2,1.8-0.6,1.8-0.6l-0.5-0.3C20.9,5.4,19.9,5.7,19.1,6z"/>
		<path class="st1" d="M22.6,5L23,5.3c1.1-0.2,2-0.4,2-0.4l-0.3-0.3C24.7,4.6,23.5,4.8,22.6,5z"/>
	</g>
	<g>
		<g>
			<g>
				<path class="st2" d="M223.5,17.3c0,0.4-0.1,0.8-0.3,1.1c-0.2,0.3-0.5,0.6-0.8,0.8c-0.3,0.2-0.7,0.3-1.1,0.3
					c-0.4,0-0.8-0.1-1.1-0.3c-0.3-0.2-0.6-0.5-0.8-0.8c-0.2-0.3-0.3-0.7-0.3-1.1c0-0.4,0.1-0.8,0.3-1.1c0.2-0.3,0.5-0.6,0.8-0.8
					c0.3-0.2,0.7-0.3,1.1-0.3c0.4,0,0.8,0.1,1.1,0.3c0.3,0.2,0.6,0.5,0.8,0.8C223.4,16.5,223.5,16.9,223.5,17.3z M223.1,17.3
					c0-0.5-0.2-0.9-0.5-1.2c-0.3-0.3-0.7-0.5-1.2-0.5c-0.5,0-0.9,0.2-1.2,0.5c-0.3,0.3-0.5,0.7-0.5,1.2c0,0.3,0.1,0.6,0.2,0.9
					s0.4,0.5,0.6,0.6c0.3,0.2,0.6,0.2,0.9,0.2c0.3,0,0.6-0.1,0.9-0.2c0.3-0.2,0.5-0.4,0.6-0.6C223,17.9,223.1,17.6,223.1,17.3z
					 M220.4,16.1h1.1c0.2,0,0.4,0,0.5,0.1c0.1,0,0.2,0.1,0.3,0.2c0.1,0.1,0.1,0.2,0.1,0.4c0,0.1,0,0.2-0.1,0.3
					c0,0.1-0.1,0.2-0.2,0.2c0.1,0,0.1,0.1,0.2,0.2c0,0.1,0.1,0.2,0.1,0.3c0,0.3,0,0.5,0,0.5c0,0,0,0.1,0.1,0.1h-0.6
					c0-0.1,0-0.1-0.1-0.2c0,0,0-0.1,0-0.2c0-0.2,0-0.3,0-0.4c0,0,0-0.1-0.1-0.1c0,0-0.1,0-0.3,0h-0.4v0.9h-0.5V16.1z M220.9,16.5
					v0.6h0.4c0.2,0,0.3,0,0.3-0.1c0.1,0,0.1-0.1,0.1-0.2c0-0.1,0-0.2-0.1-0.2c-0.1,0-0.2-0.1-0.3-0.1H220.9z"/>
			</g>
		</g>
		<g>
			<path class="st2" d="M48.9,14.7h-1.6h-3V16h2.9c-0.4,1.3-1.6,2.3-3.1,2.3c-1.8,0-3.3-1.5-3.3-3.3c0-1.8,1.5-3.3,3.3-3.3
				c0.7,0,1.3,0.2,1.8,0.6c0.4,0.3,0.7,0.6,0.9,1l1.4-0.8c-0.2-0.4-0.5-0.7-0.8-1.1c-0.9-0.8-2.1-1.3-3.4-1.3
				c-2.7,0-4.9,2.2-4.9,4.9c0,2.7,2.2,4.9,4.9,4.9c2.4,0,4.3-1.7,4.8-3.9c0.1-0.3,0.1-0.6,0.1-1C48.9,14.9,48.9,14.8,48.9,14.7z"/>
			<path class="st2" d="M70.5,10.5h-3.7v0h0v9h1.8v-3.4h1.7c1.6,0,2.7-1,2.7-3.1C73.1,11.7,71.9,10.5,70.5,10.5z M69.8,14.8h-1.3v-3
				h1.3c0.8,0,1.5,0.7,1.5,1.5C71.4,14.2,70.7,14.8,69.8,14.8z"/>
			<path class="st2" d="M53.9,15.8c1.2-0.2,2.1-1.4,2.1-2.7c0-1.4-1.2-2.6-2.6-2.6h-3.7v0h0v9h1.8v-3.8h0.1l3,3.8h2.3L53.9,15.8z
				 M52.9,14.8h-1.3v-3h1.3c0.8,0,1.5,0.7,1.5,1.5C54.4,14.2,53.7,14.8,52.9,14.8z"/>
			<path class="st2" d="M65.3,10.5h-1.8l0,5.2c0,1.2-0.4,2.6-2.1,2.6c-1.7,0-2.1-1.4-2.1-2.6l0-5.2h-1.8l0,5.2c0,2.1,0.4,4,3.9,4
				c3.3,0,3.9-1.9,3.9-4L65.3,10.5z"/>
			<path class="st2" d="M78.7,10.4c-2.8,0-5.1,2.1-5.1,4.6c0,2.5,1.9,4.8,5.1,4.8c3.3,0,5.1-2.2,5.1-4.8
				C83.9,12.5,81.6,10.4,78.7,10.4z M78.7,18.2c-1.8,0-3.3-1.4-3.3-3.2c0-1.8,1.5-3.2,3.3-3.2c1.8,0,3.3,1.4,3.3,3.2
				C82,16.8,80.5,18.2,78.7,18.2z"/>
		</g>
		<g>
			<polygon class="st2" points="98.6,19.5 94.3,14.6 98.4,10.4 96.1,10.4 92.3,14.3 92.3,10.4 90.6,10.4 90.6,19.5 92.3,19.5 
				92.3,14.9 96.3,19.5 			"/>
			<path class="st2" d="M122.5,19.5h2l-4-9.1l0,0h0l0,0h-1.8l0,0l-4,9.1h2l0.9-2.1h4.1L122.5,19.5z M118.1,16.1l1.5-3.5l1.5,3.5
				H118.1z"/>
			<path class="st2" d="M106,19.5h2l-4-9.1l0,0h0l0,0h-1.8l0,0l-4,9.1h2l0.9-2.1h4.1L106,19.5z M101.6,16.1l1.5-3.5l1.5,3.5H101.6z"
				/>
			<path class="st2" d="M111.8,13.9L111.8,13.9c-0.3-0.1-0.7-0.2-1.2-0.7c-0.6-0.5-0.2-1.5,0.6-1.7c1.4-0.4,2.3,0.9,2.3,0.9l0.9-1.2
				c-0.8-0.8-2.4-1.5-4.1-0.8c-1.6,0.6-2.2,2.1-1.3,3.7c0.4,0.8,2.4,1.3,2.7,1.4v0c0.7,0.3,1.2,0.8,1.2,1.5c0,0.8-0.8,1.3-1.8,1.3
				c-1.2,0-1.9-1.3-1.9-1.3L108,18c0.6,1,1.9,1.7,3.2,1.7c1.8,0,3.5-1.2,3.5-2.9C114.7,15,112.8,14.4,111.8,13.9z"/>
		</g>
		<g>
			<path class="st2" d="M149.5,10.4h-1.8l0,5.2c0,1.2-0.4,2.6-2.1,2.6c-1.7,0-2.1-1.4-2.1-2.6l0-5.2h-1.8l0,5.2c0,2.1,0.4,4,3.9,4
				c3.3,0,3.9-1.9,3.9-4L149.5,10.4z"/>
			<path class="st2" d="M184.2,10.4c-2.8,0-5.1,2.1-5.1,4.6c0,2.5,1.9,4.8,5.1,4.8c3.3,0,5.1-2.2,5.1-4.8
				C189.4,12.5,187.1,10.4,184.2,10.4z M184.2,18.2c-1.8,0-3.3-1.4-3.3-3.2c0-1.8,1.5-3.2,3.3-3.2c1.8,0,3.3,1.4,3.3,3.2
				C187.6,16.8,186.1,18.2,184.2,18.2z"/>
			<path class="st2" d="M161.8,10.4c-2.8,0-5.1,2.1-5.1,4.6c0,2.5,1.9,4.8,5.1,4.8c3.3,0,5.1-2.2,5.1-4.8
				C167,12.5,164.7,10.4,161.8,10.4z M161.8,18.2c-1.8,0-3.3-1.4-3.3-3.2c0-1.8,1.5-3.2,3.3-3.2c1.8,0,3.3,1.4,3.3,3.2
				C165.2,16.8,163.7,18.2,161.8,18.2z"/>
			<path class="st2" d="M139.3,19.5h2l-4-9.1l0,0h0l0,0h-1.8l0,0l-4,9.1h2l0.9-2.1h4.1L139.3,19.5z M135,16.1l1.5-3.5l1.5,3.5H135z"
				/>
			<polygon class="st2" points="156.5,10.4 150.1,10.4 150.1,11.9 152.5,11.9 152.5,19.5 154.1,19.5 154.1,11.9 156.5,11.9 			"/>
			<polygon class="st2" points="195.9,10.4 189.6,10.4 189.6,11.9 191.9,11.9 191.9,19.5 193.5,19.5 193.5,11.9 195.9,11.9 			"/>
			<path class="st2" d="M200.7,15.7c1.2-0.2,2.1-1.4,2.1-2.7c0-1.4-1.2-2.6-2.6-2.6h-3.7v0h0v9h1.8v-3.8h0.1l3,3.8h2.3L200.7,15.7z
				 M199.6,14.7h-1.3v-3h1.3c0.8,0,1.5,0.7,1.5,1.5C201.1,14,200.5,14.7,199.6,14.7z"/>
			<rect x="204.5" y="10.4" class="st2" width="1.8" height="9.1"/>
			<polygon class="st2" points="215.1,10.4 213.9,10.4 212.8,10.4 208,10.4 208,11.7 212,11.7 207.3,19.5 208.8,19.5 209.6,19.5 
				214.8,19.5 214.8,18.1 210.4,18.1 			"/>
			<polygon class="st2" points="178.9,19.5 177.2,10.4 177.1,10.4 177.1,10.4 175.8,10.4 173.2,16.5 170.4,10.4 169,10.4 
				167.4,19.5 169.2,19.5 170.3,13.6 172.7,19.5 173.4,19.5 175.9,13.4 176.9,19.5 			"/>
		</g>
	</g>
</g>
</svg>
