<svg xmlns="http://www.w3.org/2000/svg" viewBox="0 0 164.07 67.38"><defs><style>.cls-1{fill:#ffd806;}.cls-2{fill:#474f58;}.cls-3{fill:#fff;}</style></defs><title>kasa-logo</title><g id="Capa_2" data-name="Capa 2"><g id="Capa_2-2" data-name="Capa 2"><circle class="cls-1" cx="33.54" cy="33.54" r="33.54"/><path class="cls-2" d="M33.54,0H0V33.54A33.54,33.54,0,0,1,33.54,0Z"/><path class="cls-2" d="M33.54,67.07H67.07V33.54A33.54,33.54,0,0,1,33.54,67.07Z"/><path class="cls-2" d="M11.65,19.73,38.4,29.54s16-6,6.46-9.81C41.08,18,11.65,19.73,11.65,19.73Z"/><path class="cls-3" d="M44.86,19.73h0l15.81-5.92a33.73,33.73,0,0,0-6.51-6.73c-44.78,5.13-42.5,12.65-42.5,12.65l.07,0-.07,0S41.09,18,44.86,19.73Z"/><path class="cls-3" d="M66.53,27.49,44.87,19.73c9.52,3.85-6.41,9.79-6.46,9.8h0A190.53,190.53,0,0,1,.21,37.32a33.56,33.56,0,0,0,26.7,29.1s27.6-14.64,40-29.3a33.8,33.8,0,0,0-.35-9.63Z"/><path class="cls-2" d="M59.39,26.59c.57,1.47-1,3.5-1,3.5l-2.06-.46s1.82-2.3,1.25-3.47Z"/><path class="cls-2" d="M53.29,32.6l2.27.44c-1.24,1.07-3.43,2.62-3.43,2.62l-2.47-.43Z"/><polygon class="cls-2" points="43.99 38.08 46.44 38.64 40.61 41.02 38 40.45 43.99 38.08"/><polygon class="cls-2" points="30.29 43.14 33.18 43.7 26.7 45.89 23.63 45.3 30.29 43.14"/><polygon class="cls-2" points="15.3 47.84 18.36 48.55 11.07 50.67 8.23 49.91 15.3 47.84"/><path class="cls-2" d="M38.21,14.92l1.25.74s-1.91.8-3.66,1.58l-1.28-.77C35.87,15.88,38.21,14.92,38.21,14.92Z"/><path class="cls-2" d="M42.75,13.3l1.08.73c1.7-.56,4.08-1.26,4.08-1.26l-1.2-.61S44.45,12.77,42.75,13.3Z"/><path class="cls-2" d="M50.45,11.23l1,.63c2.46-.53,4.48-.89,4.48-.89l-.65-.59S52.58,10.76,50.45,11.23Z"/><path class="cls-3" d="M164.07,62.68a2.14,2.14,0,0,1-.29,1.09,2.19,2.19,0,1,1,.29-1.09Zm-.45,0a1.74,1.74,0,0,0-3-1.24,1.66,1.66,0,0,0-.51,1.22,1.71,1.71,0,0,0,.87,1.49,1.76,1.76,0,0,0,1.75,0,1.69,1.69,0,0,0,.64-.63A1.66,1.66,0,0,0,163.62,62.69ZM161,61.49H162a1.22,1.22,0,0,1,.49.07.58.58,0,0,1,.25.23.74.74,0,0,1,.1.39.73.73,0,0,1-.06.31.67.67,0,0,1-.22.24.44.44,0,0,1,.18.17.87.87,0,0,1,.06.33,4.49,4.49,0,0,0,0,.52.27.27,0,0,0,.1.14h-.6a.81.81,0,0,1-.05-.16,1.69,1.69,0,0,1,0-.23,1.84,1.84,0,0,0,0-.39.2.2,0,0,0-.09-.11.59.59,0,0,0-.26,0h-.43v.93H161Zm.53.46v.57h.44a.57.57,0,0,0,.34-.07.27.27,0,0,0,.08-.22.26.26,0,0,0-.08-.22.59.59,0,0,0-.34-.06Z"/><path class="cls-3" d="M82.45,26H77.83v1.33h2.85a3.26,3.26,0,1,1-.32-2.66l1.42-.82a4.9,4.9,0,1,0,.69,2.5C82.46,26.23,82.46,26.11,82.45,26Z"/><path class="cls-3" d="M104,21.81h-3.68v0h0v9h1.77V27.45h1.75c1.63,0,2.74-1,2.74-3.06A2.58,2.58,0,0,0,104,21.81Zm-.66,4.31h-1.25v-3h1.25a1.5,1.5,0,1,1,0,3Z"/><path class="cls-3" d="M87.48,27.09a2.77,2.77,0,0,0,2.15-2.7A2.58,2.58,0,0,0,87,21.81H83.37v0h0v9h1.77V27.14h.13l3,3.75h2.25Zm-1.09-1H85.14v-3h1.25a1.5,1.5,0,1,1,0,3Z"/><path class="cls-3" d="M98.87,21.81H97.1V27c0,1.16-.4,2.58-2.1,2.58s-2.1-1.42-2.1-2.58v-5.2H91.11V27c0,2.14.42,4,3.88,4,3.3,0,3.88-1.9,3.88-4Z"/><path class="cls-3" d="M112.24,21.67a4.9,4.9,0,0,0-5.15,4.61A4.79,4.79,0,0,0,112.24,31c3.32,0,5.15-2.22,5.15-4.77A4.9,4.9,0,0,0,112.24,21.67Zm0,7.79a3.18,3.18,0,1,1,3.32-3.18A3.25,3.25,0,0,1,112.24,29.46Z"/><polygon class="cls-3" points="80.71 48.48 76.5 43.62 80.51 39.4 78.26 39.4 74.5 43.35 74.5 39.4 72.72 39.4 72.72 48.48 74.5 48.48 74.5 43.91 78.46 48.48 80.71 48.48"/><path class="cls-3" d="M104.66,48.48h2l-4-9.07h-1.84l-4,9.07h2l.87-2.06h4.07Zm-4.37-3.41,1.47-3.48,1.47,3.48Z"/><path class="cls-3" d="M88.14,48.48h2l-4-9.07H84.32l-4,9.07h2l.87-2.06h4.07Zm-4.37-3.41,1.47-3.48,1.47,3.48Z"/><path class="cls-3" d="M94,42.92h0a3.44,3.44,0,0,1-1.24-.67,1.07,1.07,0,0,1,.56-1.74,2.34,2.34,0,0,1,2.32.86l.87-1.21a4,4,0,0,0-4.12-.84A2.42,2.42,0,0,0,91,43c.44.77,2.43,1.26,2.72,1.37h0A1.72,1.72,0,0,1,95,45.92c0,.82-.79,1.26-1.77,1.27a2.51,2.51,0,0,1-1.9-1.29L90.17,47a3.81,3.81,0,0,0,3.22,1.7,3.21,3.21,0,0,0,3.47-2.9C96.86,44,95,43.38,94,42.92Z"/><path class="cls-3" d="M90.37,58H88.6v5.2c0,1.16-.4,2.58-2.1,2.58s-2.1-1.42-2.1-2.58V58H82.62v5.2c0,2.14.42,4,3.88,4,3.3,0,3.88-1.9,3.88-4Z"/><path class="cls-3" d="M125.15,58A4.9,4.9,0,0,0,120,62.62a4.79,4.79,0,0,0,5.15,4.77c3.32,0,5.15-2.22,5.15-4.77A4.9,4.9,0,0,0,125.15,58Zm0,7.79a3.18,3.18,0,1,1,3.32-3.18A3.25,3.25,0,0,1,125.15,65.8Z"/><path class="cls-3" d="M102.75,58a4.9,4.9,0,0,0-5.15,4.61,4.79,4.79,0,0,0,5.15,4.77c3.32,0,5.15-2.22,5.15-4.77A4.9,4.9,0,0,0,102.75,58Zm0,7.79a3.18,3.18,0,1,1,3.32-3.18A3.25,3.25,0,0,1,102.75,65.8Z"/><path class="cls-3" d="M80.24,67.08h2l-4-9.07H76.42l-4,9.07h2L75.3,65h4.07Zm-4.37-3.41,1.47-3.48,1.47,3.48Z"/><polygon class="cls-3" points="97.38 58.01 91.02 58.01 91.02 59.57 93.41 59.57 93.41 67.08 95 67.08 95 59.57 97.38 59.57 97.38 58.01"/><polygon class="cls-3" points="136.82 58.01 130.47 58.01 130.47 59.57 132.85 59.57 132.85 67.08 134.44 67.08 134.44 59.57 136.82 59.57 136.82 58.01"/><path class="cls-3" d="M141.63,63.28a2.77,2.77,0,0,0,2.15-2.7A2.58,2.58,0,0,0,141.19,58h-3.68v0h0v9h1.77V63.33h.13l3,3.75h2.25Zm-1.09-1h-1.25v-3h1.25a1.5,1.5,0,1,1,0,3Z"/><rect class="cls-3" x="145.36" y="58.01" width="1.83" height="9.07"/><polygon class="cls-3" points="156 58.01 154.84 58.01 153.75 58.01 148.86 58.01 148.86 59.34 152.95 59.34 148.25 67.08 149.75 67.08 150.5 67.08 155.73 67.08 155.73 65.75 151.31 65.75 156 58.01"/><polygon class="cls-3" points="119.76 67.08 118.06 58.01 118.01 58.03 118.02 58.01 116.72 58.01 114.12 64.14 111.33 58.01 109.87 58.01 108.33 67.08 110.1 67.08 111.24 61.18 113.64 67.08 114.26 67.08 116.79 60.98 117.83 67.08 119.76 67.08"/></g></g></svg>