<?xml version="1.0" encoding="utf-8"?>
<!-- Generator: Adobe Illustrator 22.0.1, SVG Export Plug-In . SVG Version: 6.00 Build 0)  -->
<svg version="1.1" id="Capa_1" xmlns="http://www.w3.org/2000/svg" xmlns:xlink="http://www.w3.org/1999/xlink" x="0px" y="0px"
	 width="32px" height="32px" viewBox="0 0 32 32" style="enable-background:new 0 0 32 32;" xml:space="preserve">
<style type="text/css">
	.st0{fill:#999999;}
</style>
<title>whatsapp-icon</title>
<g id="Capa_2_1_">
	<g id="Capa_2-2">
		<g id="WA_Logo">
			<path class="st0" d="M26.1,5.8C20.4,0.5,11.5,0.8,6.2,6.4c-4.1,4.4-5,11-2.2,16.3L2,30l7.4-1.9c2,1.1,4.3,1.7,6.7,1.7l0,0
				c7.8-0.1,14-6.5,13.9-14.3c-0.1-3.6-1.5-7.1-4-9.7H26.1z M16.1,27.4L16.1,27.4c-2.1,0-4.1-0.6-5.9-1.6l-0.4-0.3l-4.4,1.2l1.2-4.3
				l-0.3-0.5C2.8,16.5,4.5,9.3,9.9,5.9S22.6,4.1,26,9.5s1.8,12.6-3.7,16.1C20.5,26.8,18.3,27.4,16.1,27.4z M22.6,18.6
				c-0.4-0.2-2.1-1-2.4-1.1c-0.3-0.1-0.5-0.2-0.8,0.2c-0.2,0.3-0.9,1.1-1.1,1.4c-0.2,0.3-0.4,0.3-0.8,0.1c-1-0.4-2-1-2.8-1.7
				c-0.8-0.7-1.4-1.5-1.9-2.4c-0.2-0.4,0-0.5,0.2-0.7c0.2-0.2,0.4-0.4,0.5-0.6c0.1-0.2,0.3-0.4,0.4-0.6c0.1-0.2,0.1-0.4,0-0.6
				c-0.1-0.2-0.8-1.9-1.1-2.6c-0.3-0.7-0.6-0.6-0.8-0.6h-0.7c-0.4,0-0.7,0.2-0.9,0.4C9.5,10.5,9,11.5,9,12.6
				c0.1,1.3,0.6,2.6,1.4,3.6c1.5,2.3,3.6,4.1,6,5.3c0.7,0.3,1.3,0.5,2,0.7c0.7,0.2,1.5,0.3,2.2,0.1c1-0.2,1.8-0.8,2.4-1.7
				c0.2-0.5,0.3-1.1,0.2-1.7C23.1,18.9,22.9,18.8,22.6,18.6z"/>
		</g>
	</g>
</g>
</svg>
